<svg id="Livello_1" data-name="Livello 1" xmlns="http://www.w3.org/2000/svg" viewBox="0 0 1923 562.61"><defs><style>.cls-1{fill:#2196f3;}.cls-2{fill:#366f9e;}</style></defs><title>backgroung_home</title><path class="cls-1" d="M732.14,977a270.81,270.81,0,0,1-20.51,103H-3V668.18C69.47,636.92,153.91,619,244.05,619c186.59,0,348.74,76.8,430.85,189.66C711.44,858.84,732.14,916.14,732.14,977Z" transform="translate(3 -517.39)"/><path class="cls-1" d="M1777.11,869.78c0,66.07-32.37,126.6-86.11,173.51a342.3,342.3,0,0,1-51,36.71H1178.22c-83.64-49.48-137.15-125.27-137.15-210.22a203.72,203.72,0,0,1,13.68-73.16c43.48-113.53,185.66-196.78,354.34-196.78,93,0,177.85,25.28,242.62,67C1728.58,716.28,1777.11,788.87,1777.11,869.78Z" transform="translate(3 -517.39)"/><path class="cls-2" d="M1265.74,1049.22a209.55,209.55,0,0,1-2.26,30.78H495.16a209.55,209.55,0,0,1-2.26-30.78c0-101.48,72.71-190.5,182-240.56,59.3-27.17,129.36-42.87,204.42-42.87,63.16,0,122.78,11.12,175.43,30.83C1180,843.5,1265.74,939,1265.74,1049.22Z" transform="translate(3 -517.39)"/><path class="cls-2" d="M1920,517.39V1080H1604.76a350.3,350.3,0,0,1-30.49-57,309.65,309.65,0,0,1-24.57-120.39c0-87.82,37.75-169.17,102-235.8C1717.42,598.65,1810.87,545.9,1920,517.39Z" transform="translate(3 -517.39)"/></svg>