<svg id="Livello_1" data-name="Livello 1" xmlns="http://www.w3.org/2000/svg" viewBox="0 0 398 398"><defs><style>.cls-1{fill:#2196f3;}.cls-2{fill:#fff;}</style></defs><title>logo</title><circle class="cls-1" cx="199" cy="199" r="199"/><path class="cls-2" d="M1018.51,260.72c-1.29-34.8-2.58-76.47-2.58-119h-.86c-9.45,36.94-21.48,78.19-32.65,112.13l-35.23,113H896.07L865.13,254.7c-9.45-33.93-18.9-74.75-26.2-113h-.86c-1.29,39.09-3,83.77-4.73,119.86l-5.58,110H767.18L785.66,82h87.21l28.35,96.66c9.45,33.51,18,69.6,24.49,103.54h1.72c7.73-33.51,17.61-71.74,27.49-104L985.43,82h85.92l15.47,289.56h-63.59Z" transform="translate(-728 -35)"/></svg>